PathFileType	4	(X/Y/Z)	C:/Users/beibeiliu/ov580/test_trc/User1\sequence.29_training_dense_right.trc
DataRate	CameraRate	NumFrames	NumMarkers	Units	OrigDataRate	OrigDataStartFrame	OrigNumFrames
120	120	16	19	mm	120	29	228
Frame#	Time	ThumbCMC			ThumbMCP			ThumbIP			ThumbTip			IndexMCP			IndexPIP			IndexTip			MiddleMCP			MiddlePIP			MiddleTip			RingMCP			RingPIP			RingTip			PinkyMCP			PinkyPIP			PinkyTip			BackHand1			BackHand2			BackHand3	
		X0	Y0	Z0	X1	Y1	Z1	X2	Y2	Z2	X3	Y3	Z3	X4	Y4	Z4	X5	Y5	Z5	X6	Y6	Z6	X7	Y7	Z7	X8	Y8	Z8	X9	Y9	Z9	X10	Y10	Z10	X11	Y11	Z11	X12	Y12	Z12	X13	Y13	Z13	X14	Y14	Z14	X15	Y15	Z15	X16	Y16	Z16	X17	Y17	Z17	X18	Y18	Z18	
28	0.233333	143.084	-21.9648	58.0162	127.368	-38.678	28.8782	120.855	-45.9022	6.04822	109.353	-53.4228	-14.0199	162.376	-11.509	-21.7031	155.808	-22.5899	-42.2009	146.607	-42.6475	-65.4757	201.375	-16.3679	-21.2819	201.979	-19.6001	-48.0394	204.275	-27.4061	-79.6654	222.312	-30.2647	-7.88957	232.614	-28.7851	-32.3678	238.367	-31.7025	-56.5434	230.179	-56.2862	13.7807	244.251	-57.5304	0.188942	261.486	-54.0102	-11.2155	210.037	-29.0176	46.7804	209.753	-30.213	81.6673	182.48	-6.31029	56.116	
29	0.241667	144.462	-22.3595	60.8543	127.774	-39.5654	32.323	118.557	-45.1723	3.52522	113.351	-52.5916	-17.6421	164.436	-14.7536	-22.2816	156.344	-24.5205	-41.8367	148.046	-42.7879	-61.167	203.022	-17.8027	-22.1245	203.492	-22.4845	-50.3385	201.464	-27.1922	-81.5395	221.815	-32.5555	-5.37438	231.663	-28.7735	-34.0264	237.347	-29.9605	-58.9	228.197	-56.8778	15.0164	244.901	-59.0099	0.246552	261.449	-55.0825	-9.90878	210.893	-30.7522	45.3247	211.416	-31.5279	81.2497	181.41	-7.65236	60.1591	
30	0.25	143.071	-20.8248	58.4234	126.755	-37.7472	30.3578	120.695	-45.6981	5.92283	114.091	-53.4786	-13.4502	160.696	-11.3149	-18.8576	155.867	-26.834	-42.6406	147.418	-42.6516	-60.2894	201.346	-18.3207	-21.0156	202.732	-21.7446	-50.9483	203.119	-29.2509	-79.5326	222.252	-31.8998	-7.28152	229.886	-28.0709	-33.415	239.562	-33.0636	-60.2104	227.212	-55.8991	13.3487	241.488	-56.7532	-1.75965	259.014	-52.8792	-11.5684	210.62	-32.3764	46.4634	208.814	-31.6352	78.4491	183.038	-7.72574	60.2866	
31	0.258333	143.576	-21.812	60.2367	126.845	-38.6353	28.3893	120.598	-45.6792	5.31094	111.625	-54.2829	-16.3665	164.927	-12.41	-17.369	153.851	-25.502	-42.9849	147.428	-44.1901	-62.0935	202.392	-18.2347	-21.9241	203.636	-22.594	-49.0177	202.239	-26.811	-80.9795	220.936	-31.6587	-8.58105	231.269	-30.6675	-33.9697	235.299	-30.902	-56.9616	228.426	-57.9995	15.0114	240.58	-57.7681	-0.142015	258.89	-51.5854	-14.407	209.068	-31.6034	45.4889	208.178	-29.3314	81.0592	185.549	-10.3388	59.677	
32	0.266667	140.958	-21.2158	63.1583	125.063	-38.5444	29.2838	117.665	-44.933	3.68534	111.695	-54.6412	-16.2446	164.65	-11.2206	-16.2178	151.23	-23.6014	-43.3477	146.063	-39.6791	-60.0507	200.612	-18.3148	-17.7233	200.595	-20.2018	-49.5014	204.887	-29.0227	-78.2677	220.569	-32.9609	-6.18287	229.589	-30.3114	-32.4522	238.213	-34.1958	-58.6006	226.871	-56.9783	15.9689	242.756	-60.7371	2.8619	260.779	-54.0212	-16.128	212.197	-32.8168	47.8844	211.103	-34.2386	79.3714	186.417	-10.2456	57.2628	
33	0.275	142.582	-22.5032	61.8564	123.83	-38.8121	35.0062	116.333	-46.2584	8.52506	107.72	-53.3743	-14.7013	161.675	-10.4162	-19.365	155.592	-20.6072	-41.8923	151.808	-37.2061	-63.279	203.171	-21.4134	-16.615	203.255	-21.4875	-47.9372	204.323	-27.6931	-75.8426	223.076	-34.5426	-8.54394	232.245	-32.6282	-31.9597	239.246	-37.073	-54.7972	229.712	-58.3205	14.8899	243.146	-60.9031	2.91977	264.168	-56.1362	-12.6013	211.968	-31.181	48.0706	209.318	-31.5829	77.9736	181.828	-9.29522	60.6292	
34	0.283333	144.117	-22.5145	59.7449	123.19	-37.6219	32.4798	118.238	-45.6909	11.2109	104.076	-52.2662	-11.9089	169.028	-12.651	-17.9377	158.057	-17.9856	-45.8601	156.374	-30.1253	-65.4007	200.959	-18.4673	-20.8874	204.086	-22.5644	-46.5939	206.911	-30.7462	-78.572	221.015	-34.0643	-6.44148	231.43	-34.3202	-29.7438	238.182	-34.7253	-58.8385	229.133	-59.8072	15.2224	243.568	-63.4896	2.45113	260.533	-57.0484	-12.4894	211.346	-35.4567	49.7188	207.976	-33.2839	81.7145	183.546	-10.324	57.7671	
35	0.291667	144.362	-22.084	63.1665	123.702	-37.1194	32.0856	112.684	-43.8237	10.9388	105.004	-52.0432	-8.27634	169.388	-8.86919	-20.0429	168.75	-17.3973	-42.6524	163.63	-24.0061	-66.7121	204.983	-20.728	-21.1572	207.538	-24.5346	-47.9966	211.552	-33.8402	-75.9846	223.829	-37.805	-3.69878	232.082	-33.8688	-33.237	241.511	-39.4285	-58.4946	230.94	-60.4416	14.213	240.463	-63.6731	3.87952	260.746	-60.5947	-11.8739	210.728	-31.9003	49.2094	208.871	-33.2474	84.2567	187.051	-11.3875	59.2522	
36	0.3	144.926	-20.9111	59.4049	124.815	-37.7829	37.1132	111.814	-43.1232	8.63556	99.9188	-50.8614	-6.23248	176.907	-10.5836	-17.8875	172.698	-12.5766	-42.9566	174.74	-22.386	-66.513	203.686	-20.582	-20.3117	208.383	-26.704	-46.1449	210.255	-32.9841	-78.4538	223.21	-37.8675	-3.25441	234.056	-37.4394	-33.1386	240.044	-41.4585	-58.0575	229.758	-63.6678	19.2359	246.99	-66.3187	2.21887	258.838	-60.0696	-8.93919	210.223	-34.8123	49.1587	209.342	-31.6055	79.2575	186.107	-11.6801	61.8195	
37	0.308333	145.469	-21.9488	63.585	122.2	-36.5732	38.7853	108.915	-42.9593	10.6544	97.1736	-50.9357	-4.59769	178.171	-10.5256	-14.9892	180.003	-12.3727	-40.9971	177.938	-14.5046	-67.4855	206.732	-23.1064	-19.221	211.263	-29.413	-46.7551	213.049	-37.7549	-77.3712	224.859	-38.541	-2.46559	234.981	-38.4468	-33.0828	239.076	-41.5771	-55.7643	232.036	-65.3961	17.9632	246.544	-67.3333	2.523	262.092	-61.2265	-12.2519	212.896	-34.961	50.8561	213.417	-33.8424	79.9216	187.522	-11.6603	56.4597	
38	0.316667	144.78	-19.9615	64.2137	122.4	-35.239	39.9263	108.334	-41.6065	13.6217	95.2308	-50.3156	0.810367	179.837	-9.39996	-17.6732	180.549	-8.39038	-42.3201	183.848	-12.5341	-67.9754	208.307	-25.6482	-17.376	208.586	-27.4777	-46.1942	210.178	-35.184	-78.2654	224.203	-38.1779	-6.44264	235.278	-39.4815	-28.5974	238.98	-41.7264	-55.4774	229.954	-64.4128	19.1466	243.393	-68.4106	6.85111	259.283	-62.6149	-9.91556	211.348	-36.5514	50.3293	210.518	-32.5671	79.5749	188.969	-11.1725	57.8788	
39	0.325	141.295	-18.2512	63.8216	122.331	-35.0331	36.5425	110.423	-42.396	14.6418	94.5999	-50.3645	2.47019	177.942	-8.19497	-11.0697	181.184	-5.6108	-37.9045	185.588	-7.55774	-64.7092	205.419	-22.4803	-19.9339	209.433	-28.5241	-48.9637	210.99	-37.9242	-78.1376	226.224	-40.634	-6.45649	233.977	-39.0197	-31.1627	239.152	-42.6687	-57.3711	229.09	-62.3312	16.8219	245.09	-67.3975	4.42564	262.32	-63.8183	-11.4008	213.911	-38.2313	49.7305	211.822	-36.0641	83.1414	187.6	-10.4194	57.8379	
40	0.333333	142.641	-17.8762	61.1216	122.598	-35.7746	39.8693	107.378	-42.1317	18.1176	94.247	-49.3658	1.55214	179.582	-6.68346	-11.3197	185.501	-7.51543	-37.5228	190.923	-7.95559	-66.1229	207.925	-25.2893	-17.0314	207.586	-27.7866	-44.8717	209.534	-37.1727	-76.9777	224.726	-42.4611	-1.87557	233.32	-39.7695	-30.3078	240.285	-44.4097	-53.9201	231.283	-66.0552	19.6324	245.575	-69.2818	5.3403	262.308	-65.6312	-8.5306	211.788	-36.586	49.0676	212.42	-33.9203	82.5122	188.539	-14.0966	59.2398	
41	0.341667	144.243	-19.2023	61.9854	121.194	-35.6458	42.1596	109.468	-43.0985	16.4411	92.068	-50.2436	-0.010443	179.066	-5.4257	-11.9521	185.331	-6.0027	-38.3776	189.357	-6.42598	-62.0678	205.859	-23.2192	-20.6485	209.045	-29.9303	-47.318	209.395	-40.2108	-78.1348	225.455	-41.0428	-5.50976	231.872	-38.5813	-28.8621	239.872	-45.0397	-57.7266	229.513	-65.8186	21.0185	244.362	-66.8388	1.51163	260.797	-65.4252	-7.97863	213.355	-36.2146	51.4696	210.998	-35.5759	79.5626	185.739	-11.2476	59.7246	
42	0.35	145.648	-19.5751	60.6728	123.4	-36.8975	41.1428	108.046	-43.3058	15.489	91.746	-50.1549	-1.22445	182.769	-7.96095	-15.1073	186.668	-7.80888	-36.9971	191.621	-8.36975	-62.1124	207.258	-25.2771	-20.9274	208.131	-29.808	-45.4321	206.074	-39.0734	-76.9537	221.704	-39.1668	-4.95763	232.667	-39.4072	-31.5471	236.029	-42.1603	-54.6448	230.337	-65.9185	20.2953	243.319	-67.5751	6.59445	261.703	-63.475	-9.35058	212.901	-35.9749	51.0779	212.382	-35.682	79.5131	186.751	-11.4981	56.3291	
43	0.358333	143.039	-18.6843	61.0552	125.222	-37.8785	39.1828	111.116	-44.8847	16.4385	97.1986	-51.9456	0.85804	182.442	-8.52293	-10.6898	185.37	-4.32984	-41.3942	190.533	-6.74195	-62.2919	203.152	-24.4831	-17.0412	201.816	-27.2338	-48.7523	199.655	-38.1678	-76.1478	222.369	-38.8076	-3.69265	231.47	-38.8468	-34.369	238.037	-45.326	-55.7611	231.764	-64.5422	18.5973	242.288	-65.1514	3.09582	260.627	-63.1138	-10.6144	212.033	-35.4603	50.8538	212.381	-33.9079	79.6947	188.804	-13.6537	60.5362	
